<svg xmlns="http://www.w3.org/2000/svg" viewBox="0 0 64 64">
  <rect width="64" height="64" rx="14" fill="#245b45"/>
  <path d="M19 12h26a5 5 0 0 1 5 5v34a5 5 0 0 1-5 5H19a5 5 0 0 1-5-5V17a5 5 0 0 1 5-5Z" fill="#ffffff"/>
  <path d="M24 10h16a3 3 0 0 1 3 3v4H21v-4a3 3 0 0 1 3-3Z" fill="#c49a37"/>
  <path d="M22 28h7v7h-7zM22 41h7v7h-7z" fill="#eef2ef" stroke="#245b45" stroke-width="2"/>
  <path d="m23.5 30.8 2.1 2.2 4.4-5.1M23.5 43.8l2.1 2.2 4.4-5.1" fill="none" stroke="#245b45" stroke-width="2.5" stroke-linecap="round" stroke-linejoin="round"/>
  <path d="M34 29h10M34 35h7M34 42h10M34 48h7" fill="none" stroke="#245b45" stroke-width="3" stroke-linecap="round"/>
</svg>
